<?xml version="1.0" encoding="utf-8"?>
<!-- Generator: Adobe Illustrator 17.0.0, SVG Export Plug-In . SVG Version: 6.00 Build 0)  -->
<!DOCTYPE svg PUBLIC "-//W3C//DTD SVG 1.1//EN" "http://www.w3.org/Graphics/SVG/1.1/DTD/svg11.dtd">
<svg version="1.1" id="Layer_1" xmlns="http://www.w3.org/2000/svg" xmlns:xlink="http://www.w3.org/1999/xlink" x="0px" y="0px"
	 width="193.333px" height="168px" viewBox="0 0 193.333 168" enable-background="new 0 0 193.333 168" xml:space="preserve">
<g>
	<g>
		<polygon fill="#1B1C1B" points="23.661,74.963 79.96,23.251 136.259,74.963 151.58,74.963 79.96,6.457 8.34,74.963 		"/>
	</g>
	<linearGradient id="SVGID_1_" gradientUnits="userSpaceOnUse" x1="41.8585" y1="40.71" x2="185.0989" y2="40.71">
		<stop  offset="0.3233" style="stop-color:#27667B"/>
		<stop  offset="0.445" style="stop-color:#296578"/>
		<stop  offset="0.567" style="stop-color:#31606F"/>
		<stop  offset="0.6892" style="stop-color:#3C5760"/>
		<stop  offset="0.8109" style="stop-color:#474C4D"/>
		<stop  offset="0.8349" style="stop-color:#494949"/>
	</linearGradient>
	<polygon fill="url(#SVGID_1_)" points="57.18,74.963 113.479,23.251 169.778,74.963 185.099,74.963 113.479,6.457 41.859,74.963 	
		"/>
	<g>
		<linearGradient id="SVGID_2_" gradientUnits="userSpaceOnUse" x1="8.3395" y1="78.71" x2="151.5799" y2="78.71">
			<stop  offset="0.3233" style="stop-color:#27667B"/>
			<stop  offset="0.445" style="stop-color:#296578"/>
			<stop  offset="0.567" style="stop-color:#31606F"/>
			<stop  offset="0.6892" style="stop-color:#3C5760"/>
			<stop  offset="0.8109" style="stop-color:#474C4D"/>
			<stop  offset="0.8349" style="stop-color:#494949"/>
		</linearGradient>
		<polygon fill="url(#SVGID_2_)" points="23.661,44.457 79.96,96.169 136.259,44.457 151.58,44.457 79.96,112.963 8.34,44.457 		"/>
	</g>
	<polygon fill="#1B1C1B" points="57.18,44.457 113.479,96.169 169.778,44.457 185.099,44.457 113.479,112.963 41.859,44.457 	"/>
	<g>
		<path fill="#101110" d="M5.788,162.334v-31.641h6.521c1.172,0,2.206,0.062,3.103,0.185s1.775,0.363,2.637,0.721
			s1.57,0.835,2.127,1.433s1.002,1.386,1.336,2.364s0.501,2.136,0.501,3.472c0,1.652-0.39,2.953-1.169,3.902s-1.989,1.699-3.63,2.25
			c3.762,0.914,5.643,3.574,5.643,7.98c0,3.176-0.762,5.525-2.285,7.049s-3.85,2.285-6.979,2.285H5.788z M12.151,143.139h1.09
			c0.586,0,1.078-0.111,1.477-0.334s0.7-0.548,0.905-0.976s0.349-0.888,0.431-1.38s0.123-1.072,0.123-1.74
			c0-0.527-0.038-0.99-0.114-1.389s-0.161-0.729-0.255-0.993s-0.252-0.486-0.475-0.668s-0.419-0.316-0.589-0.404
			s-0.428-0.152-0.773-0.193s-0.624-0.064-0.835-0.07s-0.539-0.009-0.984-0.009V143.139z M12.186,157.816h0.598
			c0.832,0,1.506-0.097,2.021-0.29s0.908-0.524,1.178-0.993s0.448-0.999,0.536-1.591s0.132-1.386,0.132-2.382
			c0-1.652-0.29-2.936-0.87-3.85s-1.567-1.371-2.962-1.371h-0.633V157.816z"/>
		<path fill="#101110" d="M25.827,162.334v-31.641h6.961c1.582,0,2.974,0.149,4.175,0.448s2.253,0.768,3.155,1.406
			s1.588,1.5,2.057,2.584s0.703,2.382,0.703,3.894c0,0.656-0.023,1.242-0.07,1.758s-0.155,1.104-0.325,1.767
			s-0.401,1.248-0.694,1.758s-0.715,1.011-1.266,1.503s-1.201,0.902-1.951,1.23c1.898,6.023,3.551,11.121,4.957,15.293h-6.627
			l-3.621-14.572h-1.055v14.572H25.827z M32.225,143.859h1.828c0.492,0,0.914-0.164,1.266-0.492s0.606-0.744,0.765-1.248
			s0.27-0.967,0.334-1.389s0.097-0.82,0.097-1.195s-0.026-0.762-0.079-1.16s-0.146-0.841-0.281-1.327s-0.357-0.885-0.668-1.195
			s-0.688-0.466-1.134-0.466h-2.127V143.859z"/>
		<path fill="#101110" d="M45.549,162.334v-31.641h6.398v31.641H45.549z"/>
		<path fill="#101110" d="M55.709,162.334v-31.641h6.398v27.246h6.293v4.395H55.709z"/>
		<path fill="#101110" d="M70.44,162.334v-31.641h6.398v27.246h6.293v4.395H70.44z"/>
		<path fill="#101110" d="M92.377,162.334v-31.641h6.522c1.172,0,2.206,0.062,3.103,0.185s1.775,0.363,2.637,0.721
			s1.57,0.835,2.127,1.433s1.002,1.386,1.336,2.364s0.501,2.136,0.501,3.472c0,1.652-0.39,2.953-1.169,3.902s-1.989,1.699-3.63,2.25
			c3.762,0.914,5.643,3.574,5.643,7.98c0,3.176-0.762,5.525-2.285,7.049s-3.85,2.285-6.979,2.285H92.377z M98.741,143.139h1.09
			c0.586,0,1.078-0.111,1.477-0.334s0.7-0.548,0.905-0.976s0.349-0.888,0.431-1.38s0.123-1.072,0.123-1.74
			c0-0.527-0.038-0.99-0.114-1.389s-0.161-0.729-0.255-0.993s-0.252-0.486-0.475-0.668s-0.419-0.316-0.589-0.404
			s-0.428-0.152-0.773-0.193s-0.624-0.064-0.835-0.07s-0.539-0.009-0.984-0.009V143.139z M98.776,157.816h0.598
			c0.832,0,1.506-0.097,2.021-0.29s0.908-0.524,1.178-0.993s0.448-0.999,0.536-1.591s0.132-1.386,0.132-2.382
			c0-1.652-0.29-2.936-0.87-3.85s-1.567-1.371-2.962-1.371h-0.633V157.816z"/>
		<path fill="#101110" d="M112.276,150.574v-19.881h6.398v19.688c0,1.125,0.006,1.942,0.018,2.452s0.041,1.131,0.088,1.863
			s0.129,1.245,0.246,1.538s0.278,0.609,0.483,0.949s0.472,0.563,0.8,0.668s0.727,0.158,1.195,0.158s0.867-0.053,1.195-0.158
			s0.595-0.325,0.8-0.659s0.366-0.647,0.483-0.94s0.199-0.8,0.246-1.521s0.076-1.33,0.088-1.828s0.018-1.304,0.018-2.417
			c0-0.047,0-0.082,0-0.105v-19.688h6.398v19.881c0,1.008-0.029,1.922-0.088,2.742s-0.17,1.67-0.334,2.549s-0.387,1.655-0.668,2.329
			s-0.656,1.318-1.125,1.934s-1.022,1.122-1.661,1.521s-1.409,0.715-2.312,0.949s-1.916,0.352-3.041,0.352s-2.139-0.117-3.041-0.352
			s-1.67-0.551-2.303-0.949s-1.184-0.905-1.652-1.521s-0.844-1.26-1.125-1.934s-0.507-1.45-0.677-2.329s-0.284-1.729-0.343-2.549
			S112.276,151.582,112.276,150.574z M119.712,128.285l2.391-7.77h6.064l-4.869,7.77H119.712z"/>
		<path fill="#101110" d="M137.36,162.334v-26.859h-4.641v-4.781h15.592v4.781h-4.553v26.859H137.36z"/>
		<path fill="#101110" d="M149.718,151.928v-10.635c0-7.477,3.082-11.215,9.246-11.215c6.176,0,9.264,3.738,9.264,11.215v10.477
			c0,1.266-0.094,2.435-0.281,3.507s-0.507,2.089-0.958,3.05s-1.025,1.778-1.723,2.452s-1.579,1.204-2.646,1.591
			s-2.285,0.58-3.656,0.58c-1.359,0-2.572-0.19-3.639-0.571s-1.945-0.896-2.637-1.547s-1.263-1.447-1.714-2.391
			s-0.773-1.948-0.967-3.015S149.718,153.193,149.718,151.928z M161.829,153.369v-13.676c0-3.117-0.955-4.676-2.865-4.676
			c-0.574,0-1.061,0.144-1.459,0.431s-0.691,0.68-0.879,1.178s-0.319,0.99-0.396,1.477s-0.114,1.017-0.114,1.591v13.676
			c0,3.105,0.949,4.658,2.848,4.658C160.874,158.027,161.829,156.475,161.829,153.369z"/>
		<path fill="#101110" d="M171.585,162.334v-31.641h6.961c1.582,0,2.974,0.149,4.175,0.448s2.253,0.768,3.155,1.406
			s1.588,1.5,2.057,2.584s0.703,2.382,0.703,3.894c0,0.656-0.023,1.242-0.07,1.758s-0.155,1.104-0.325,1.767
			s-0.401,1.248-0.694,1.758s-0.715,1.011-1.266,1.503s-1.201,0.902-1.951,1.23c1.898,6.023,3.551,11.121,4.957,15.293h-6.627
			l-3.621-14.572h-1.055v14.572H171.585z M177.983,143.859h1.828c0.492,0,0.914-0.164,1.266-0.492s0.606-0.744,0.765-1.248
			s0.27-0.967,0.334-1.389s0.097-0.82,0.097-1.195s-0.026-0.762-0.079-1.16s-0.146-0.841-0.281-1.327s-0.357-0.885-0.668-1.195
			s-0.688-0.466-1.134-0.466h-2.127V143.859z"/>
	</g>
</g>
</svg>
